<svg data-v-423bf9ae="" xmlns="http://www.w3.org/2000/svg" viewBox="0 0 490 90" class="iconLeft"><!----><!----><!----><g data-v-423bf9ae="" id="731bdeee-5ce0-4df2-9d63-60b522f45cc7" fill="#877471" transform="matrix(5.847953085917131,0,0,5.847953085917131,108.65726579511988,0.9064318457501415)"><path d="M7.08 5.15L9.13 12.67L11.18 12.67L13.91 2.42L11.72 2.42L9.95 9.39L8.17 2.42L6.05 2.42L4.20 9.39L2.42 2.42L0.23 2.42L2.97 12.67L5.02 12.67L7.08 5.15ZM15.43 12.67L15.43 2.41L17.47 2.41L17.47 12.67L15.43 12.67ZM19.55 12.67L19.55 2.42L21.60 2.42L21.60 6.52L25.02 2.42L27.32 2.42L23.31 7.21L28.16 12.67L25.50 12.67L21.60 8.24L21.60 12.67L19.55 12.67ZM29.40 12.67L29.40 2.41L31.45 2.41L31.45 12.67L29.40 12.67ZM35.55 12.67L33.50 12.67L33.50 2.42L34.19 2.42L38.63 7.48L43.08 2.42L43.76 2.42L43.76 12.67L41.71 12.67L41.71 6.73L38.63 10.14L35.55 6.73L35.55 12.67ZM47.46 12.67L45.27 12.67L49.37 2.42L51.42 2.42L55.51 12.67L53.33 12.67L52.72 11.10L48.07 11.10L47.46 12.67ZM51.97 9.05L50.45 5.15L48.89 9.05L51.97 9.05ZM59.10 12.67L57.05 12.67L57.05 2.42L61.52 2.42L61.52 2.42Q65.11 2.42 65.11 5.37L65.11 5.37L65.11 5.37Q65.11 8.44 61.52 8.44L61.52 8.44L59.10 8.44L59.10 12.67ZM59.10 4.34L59.10 6.52L61.97 6.52L61.97 6.52Q63.21 6.50 63.24 5.39L63.24 5.39L63.24 5.39Q63.21 4.38 61.99 4.34L61.99 4.34L59.10 4.34Z"></path></g><!----><g data-v-423bf9ae="" id="27e72aae-6fe3-4d08-8454-646210a48c58" transform="matrix(1.0000001695421294,0,0,1.0000001695421294,-4.001152885891237,-5.000000847713558)" stroke="none" fill="#25D16A"><path d="M59.787 95a4.224 4.224 0 0 1-4.094-3.18l-9.656-37.857L8.18 44.308a4.223 4.223 0 0 1-.457-8.042l81.551-30.99a4.22 4.22 0 0 1 4.487.962 4.221 4.221 0 0 1 .962 4.487l-30.99 81.551A4.22 4.22 0 0 1 59.787 95zM23.204 39.42l27.349 6.976a4.224 4.224 0 0 1 3.05 3.05l6.976 27.35 22.908-60.283L23.204 39.42z"></path></g><!----></svg>