<svg data-v-423bf9ae="" xmlns="http://www.w3.org/2000/svg" viewBox="0 0 338 112" class="iconLeft"><!----><!----><!----><g data-v-423bf9ae="" id="9a1d4342-4474-4396-b181-5d77a686db00" fill="#000000" transform="matrix(4.850444295015776,0,0,4.850444295015776,88.21242731812468,11.489265948670607)"><path d="M2.23 12.67L0.41 5.50L1.14 5.50L2.69 11.81L4.96 5.50L5.49 5.50L7.83 11.67L9.41 5.50L10.11 5.50L8.24 12.67L7.49 12.67L5.23 6.56L3.00 12.67L2.23 12.67ZM11.68 2.90L12.54 2.90L12.54 3.72L11.68 3.72L11.68 2.90ZM11.75 5.50L12.47 5.50L12.47 12.67L11.75 12.67L11.75 5.50ZM15.44 12.67L14.72 12.67L14.72 2.90L15.44 2.90L15.44 6.13L15.44 6.13Q16.69 5.50 18.20 5.50L18.20 5.50L18.20 5.50Q20.74 5.50 20.74 7.57L20.74 7.57L20.74 7.57Q20.74 9.14 18.48 9.71L18.48 9.71L20.92 12.67L19.87 12.67L17.58 9.70L17.58 9.27L17.58 9.27Q20.02 8.99 20.02 7.56L20.02 7.56L20.02 7.56Q20.02 6.11 18.04 6.11L18.04 6.11L18.04 6.11Q16.72 6.11 15.44 6.75L15.44 6.75L15.44 12.67ZM22.42 2.90L23.28 2.90L23.28 3.72L22.42 3.72L22.42 2.90ZM22.49 5.50L23.21 5.50L23.21 12.67L22.49 12.67L22.49 5.50ZM26.18 12.67L25.53 12.67L25.53 2.90L26.25 2.90L30.66 11.83L34.79 2.90L35.44 2.90L35.44 12.67L34.79 12.67L34.79 4.22L30.91 12.67L30.32 12.67L26.18 4.15L26.18 12.67ZM37.22 10.64L37.22 10.64L37.22 10.64Q37.22 8.50 40.07 8.50L40.07 8.50L40.07 8.50Q41.07 8.50 42.21 8.64L42.21 8.64L42.21 7.76L42.21 7.76Q42.21 6.11 40.14 6.11L40.14 6.11L40.14 6.11Q38.96 6.11 37.80 6.45L37.80 6.45L37.80 5.84L37.80 5.84Q38.96 5.50 40.14 5.50L40.14 5.50L40.14 5.50Q42.93 5.50 42.93 7.72L42.93 7.72L42.93 12.67L42.49 12.67L42.33 11.96L42.33 11.96Q40.98 12.67 39.72 12.67L39.72 12.67L39.72 12.67Q37.22 12.67 37.22 10.64ZM40.07 9.12L40.07 9.12L40.07 9.12Q37.94 9.12 37.94 10.62L37.94 10.62L37.94 10.62Q37.94 12.06 39.72 12.06L39.72 12.06L39.72 12.06Q41.03 12.06 42.21 11.36L42.21 11.36L42.21 9.26L42.21 9.26Q41.07 9.12 40.07 9.12ZM45.83 6.30L45.83 11.62L45.83 11.62Q46.92 11.99 47.84 11.99L47.84 11.99L47.84 11.99Q50.62 11.99 50.62 8.89L50.62 8.89L50.62 8.89Q50.62 6.14 47.85 6.14L47.85 6.14L47.85 6.14Q46.89 6.14 45.83 6.30L45.83 6.30ZM45.12 15.27L45.12 5.79L45.12 5.79Q46.34 5.50 47.87 5.50L47.87 5.50L47.87 5.50Q51.32 5.50 51.32 8.91L51.32 8.91L51.32 8.91Q51.32 12.67 47.84 12.67L47.84 12.67L47.84 12.67Q46.98 12.67 45.83 12.33L45.83 12.33L45.83 15.27L45.12 15.27Z"></path></g><defs data-v-423bf9ae=""><linearGradient data-v-423bf9ae="" gradientTransform="rotate(25)" id="55bd20d6-d439-47c6-908e-0ab1088bac4f" x1="0%" y1="0%" x2="100%" y2="0%"><stop data-v-423bf9ae="" offset="0%" style="stop-color: rgb(66, 15, 20); stop-opacity: 1;"></stop><stop data-v-423bf9ae="" offset="100%" style="stop-color: rgb(197, 84, 94); stop-opacity: 1;"></stop></linearGradient></defs><g data-v-423bf9ae="" id="618b0dbb-2b65-433e-a141-38bd44b2dfed" transform="matrix(1.1111111111111112,0,0,1.1111111111111112,-21.298890855577262,-72.85744391547308)" stroke="none" fill="url(#55bd20d6-d439-47c6-908e-0ab1088bac4f)"><path d="M67.463 129.923C54.3 148.789 52.398 164.73 52.398 164.73c-.292 1.316-1.462 1.316-1.755 0 0 0-2.486-15.941-15.356-34.808-10.676-14.918-15.502-20.769-15.502-32.907 0-17.404 13.894-31.298 31.444-31.298 17.404 0 31.737 13.894 31.737 31.298 0 12.139-9.361 23.986-15.503 32.908zM63.66 97.601c0-6.728-5.265-11.992-12.139-11.992-6.436 0-11.847 5.265-11.847 11.992s5.411 12.432 11.847 12.432c6.875-.001 12.139-5.705 12.139-12.432z"></path></g><!----></svg>